<svg width="45" height="52" viewBox="0 0 45 52" fill="none" xmlns="http://www.w3.org/2000/svg">
<path d="M31.3525 51.999H14.5566V49.375H31.3525V51.999ZM14.5566 49.375H8.78223V46.751H14.5566V49.375ZM37.127 49.375H31.3525V46.751H37.127V49.375ZM8.78223 46.75H6.1582V44.126H8.78223V46.75ZM39.751 46.75H37.127V44.126H39.751V46.75ZM6.1582 44.126H3.5332V38.3525H6.1582V44.126ZM42.376 44.126H39.751V38.3525H42.376V44.126ZM3.5332 38.3516L0.90918 38.3525V21.5557H3.5332V38.3516ZM45 38.3516L42.376 38.3525V21.5557H45V38.3516ZM6.1582 16.3076V21.5557H3.5332V16.3066L6.1582 16.3076ZM42.376 16.3076V21.5557H39.751V16.3066L42.376 16.3076ZM8.78223 10.5332V16.3066H6.1582V10.5322L8.78223 10.5332ZM39.751 10.5332V16.3066H37.127V10.5322L39.751 10.5332ZM11.4072 10.5332H8.78223V7.90918H11.4072V10.5332ZM37.126 10.5332H34.502V7.90918H37.126V10.5332ZM14.0312 7.9082H11.4072V5.28418H14.0312V7.9082ZM34.502 7.9082H31.8779V5.28418H34.502V7.9082ZM16.6553 5.28418H14.0312V2.66016H16.6553V5.28418ZM31.8779 5.28418H29.2539V2.66016H31.8779V5.28418ZM29.2529 2.65918H16.6562V0.0351562H29.2529V2.65918Z" fill="#121212"/>
</svg>
