<svg width="25" height="24" viewBox="0 0 25 24" fill="none" xmlns="http://www.w3.org/2000/svg">
<path d="M19.8003 10.5V6C19.8003 4.89543 18.9049 4 17.8003 4H5.80029C4.69572 4 3.80029 4.89543 3.80029 6V13.8261C3.80029 14.9307 4.69572 15.8261 5.80029 15.8261H7.36551V20L11.5394 15.8261H11.8003M16.9633 18.3913L19.572 21V18.3913H19.8003C20.9049 18.3913 21.8003 17.4959 21.8003 16.3913V13C21.8003 11.8954 20.9049 11 19.8003 11H13.8003C12.6957 11 11.8003 11.8954 11.8003 13V16.3913C11.8003 17.4959 12.6957 18.3913 13.8003 18.3913H16.9633Z" stroke="#C8C8C8" stroke-width="2" stroke-linecap="round" stroke-linejoin="round"/>
</svg>
