<svg width="25" height="24" viewBox="0 0 25 24" fill="none" xmlns="http://www.w3.org/2000/svg">
<path d="M16.7177 10.4984H20.7334C21.3225 10.4984 21.8001 10.976 21.8001 11.5651V17.7965V18.0984C21.8001 19.203 20.9047 20.0984 19.8001 20.0984H5.0001M2.6001 4.9651V17.9984C2.6001 19.1582 3.5403 20.0984 4.7001 20.0984V20.0984C5.85989 20.0984 6.8001 19.1582 6.8001 17.9984V11.5651C6.8001 10.976 7.27766 10.4984 7.86676 10.4984H19.6668V7.97687C19.6668 7.38777 19.1892 6.9102 18.6001 6.9102H11.5726L9.9427 4.38641C9.74622 4.08219 9.40881 3.89844 9.04666 3.89844H3.66676C3.07766 3.89844 2.6001 4.376 2.6001 4.9651Z" stroke="#C8C8C8" stroke-width="2" stroke-linecap="round" stroke-linejoin="round"/>
</svg>
