<svg width="20" height="21" viewBox="0 0 20 21" fill="none" xmlns="http://www.w3.org/2000/svg">
<path fill-rule="evenodd" clip-rule="evenodd" d="M19 9.83122V18.4984C19 19.3268 18.3284 19.9984 17.5 19.9984H13.75C12.9216 19.9984 12.25 19.3268 12.25 18.4984V14.7484C12.25 14.3342 11.9142 13.9984 11.5 13.9984H8.5C8.08579 13.9984 7.75 14.3342 7.75 14.7484V18.4984C7.75 19.3268 7.07843 19.9984 6.25 19.9984H2.5C1.67157 19.9984 1 19.3268 1 18.4984V9.83122C0.999936 9.41149 1.17573 9.01094 1.48469 8.72684L8.98469 1.65059L8.995 1.64028C9.56719 1.11991 10.4412 1.11991 11.0134 1.64028C11.0166 1.64395 11.0201 1.64739 11.0238 1.65059L18.5238 8.72684C18.8296 9.01243 19.0022 9.41278 19 9.83122Z" stroke="#C8C8C8" stroke-width="2"/>
</svg>
