<svg width="25" height="24" viewBox="0 0 25 24" fill="none" xmlns="http://www.w3.org/2000/svg">
<path d="M9.72 9.11844V8.11844C9.16771 8.11844 8.72 8.56615 8.72 9.11844H9.72ZM9.81562 9.11844H10.8156C10.8156 8.56615 10.3679 8.11844 9.81562 8.11844V9.11844ZM15.48 9.11844V8.11844C14.9277 8.11844 14.48 8.56615 14.48 9.11844H15.48ZM15.565 9.11844H16.565C16.565 8.56615 16.1173 8.11844 15.565 8.11844V9.11844ZM9.81562 9.19531V10.1953C10.3679 10.1953 10.8156 9.7476 10.8156 9.19531H9.81562ZM9.72 9.19531H8.72C8.72 9.7476 9.16771 10.1953 9.72 10.1953V9.19531ZM15.565 9.19531V10.1953C16.1173 10.1953 16.565 9.7476 16.565 9.19531H15.565ZM15.48 9.19531H14.48C14.48 9.7476 14.9277 10.1953 15.48 10.1953V9.19531ZM10.1222 14.3913C9.83155 13.9217 9.21522 13.7766 8.74562 14.0673C8.27603 14.358 8.13099 14.9743 8.42167 15.4439L10.1222 14.3913ZM16.7783 15.4439C17.069 14.9743 16.924 14.358 16.4544 14.0673C15.9848 13.7766 15.3684 13.9217 15.0778 14.3913L16.7783 15.4439ZM22.2 11.9984H21.2C21.2 16.7481 17.3496 20.5984 12.6 20.5984V21.5984V22.5984C18.4542 22.5984 23.2 17.8527 23.2 11.9984H22.2ZM12.6 21.5984V20.5984C7.85035 20.5984 4 16.7481 4 11.9984H3H2C2 17.8527 6.74578 22.5984 12.6 22.5984V21.5984ZM3 11.9984H4C4 7.24879 7.85035 3.39844 12.6 3.39844V2.39844V1.39844C6.74578 1.39844 2 6.14422 2 11.9984H3ZM12.6 2.39844V3.39844C17.3496 3.39844 21.2 7.24879 21.2 11.9984H22.2H23.2C23.2 6.14422 18.4542 1.39844 12.6 1.39844V2.39844ZM9.72 9.11844V10.1184H9.81562V9.11844V8.11844H9.72V9.11844ZM15.48 9.11844V10.1184H15.565V9.11844V8.11844H15.48V9.11844ZM9.81562 9.11844H8.81562V9.19531H9.81562H10.8156V9.11844H9.81562ZM9.81562 9.19531V8.19531H9.72V9.19531V10.1953H9.81562V9.19531ZM9.72 9.19531H10.72V9.11844H9.72H8.72V9.19531H9.72ZM15.565 9.11844H14.565V9.19531H15.565H16.565V9.11844H15.565ZM15.565 9.19531V8.19531H15.48V9.19531V10.1953H15.565V9.19531ZM15.48 9.19531H16.48V9.11844H15.48H14.48V9.19531H15.48ZM12.6 16.7984V15.7984C11.5702 15.7984 10.6524 15.2477 10.1222 14.3913L9.27195 14.9176L8.42167 15.4439C9.29142 16.849 10.8315 17.7984 12.6 17.7984V16.7984ZM15.928 14.9176L15.0778 14.3913C14.5476 15.2477 13.6298 15.7984 12.6 15.7984V16.7984V17.7984C14.3685 17.7984 15.9086 16.849 16.7783 15.4439L15.928 14.9176Z" fill="#C8C8C8"/>
</svg>
