<svg width="72" height="72" viewBox="0 0 72 72" fill="none" xmlns="http://www.w3.org/2000/svg">
<g opacity="0.8">
<rect width="72" height="72" rx="36" fill="#FFE600"/>
<path d="M35.994 21.125C27.1618 21.125 20 26.807 20 33.8189C20 38.3524 22.9921 42.3238 27.4983 44.5785L25.8761 50.4116C25.8761 50.4116 25.846 50.6836 26.0203 50.7864C26.1945 50.8891 26.4048 50.8106 26.4048 50.8106C26.9095 50.738 32.2328 46.9722 33.1641 46.3193C34.0834 46.4523 35.0387 46.5188 36.006 46.5188C44.8382 46.5188 52 40.8368 52 33.8249C52 26.8131 44.8261 21.125 35.994 21.125Z" fill="black"/>
<path d="M27.1498 38.2434C26.6391 38.2434 26.2246 37.8445 26.2246 37.3549V31.8361H24.7826C24.2839 31.8361 23.8813 31.4311 23.8813 30.9294C23.8813 30.4276 24.2899 30.0226 24.7826 30.0226H29.5111C30.0098 30.0226 30.4123 30.4276 30.4123 30.9294C30.4123 31.4311 30.0038 31.8361 29.5111 31.8361H28.0691V37.3549C28.0691 37.8385 27.6485 38.2434 27.1438 38.2434H27.1498ZM35.243 38.2314C34.8584 38.2314 34.564 38.0742 34.4739 37.8203L34.0173 36.6114H31.2054L30.7488 37.8203C30.6587 38.0742 30.3643 38.2314 29.9797 38.2314C29.7755 38.2314 29.5772 38.189 29.3909 38.1105C29.1386 37.9896 28.8922 37.6692 29.1746 36.7927L31.3797 30.9475C31.5359 30.5002 32.0105 30.0408 32.6114 30.0287C33.2122 30.0166 33.6928 30.5002 33.843 30.9475L36.0481 36.7927C36.3305 37.6692 36.0841 38.0017 35.8318 38.1105C35.6515 38.1951 35.4473 38.2314 35.243 38.2314ZM33.5306 34.9672L32.6114 32.3317L31.6921 34.9672H33.5306ZM37.5321 38.1105C37.0515 38.1105 36.6489 37.7296 36.6489 37.2642V30.9475C36.6489 30.4337 37.0695 30.0166 37.5922 30.0166C38.1149 30.0166 38.5355 30.4397 38.5355 30.9475V36.3998H40.4942C40.9749 36.3998 41.3774 36.7806 41.3774 37.2461C41.3774 37.7115 40.9809 38.0923 40.4942 38.0923L37.5321 38.1105ZM41.7319 37.3005V30.9535C41.7319 30.4397 42.1525 30.0226 42.6572 30.0226C43.1619 30.0226 43.5824 30.4458 43.5824 30.9535V32.9483L46.166 30.3491C46.4504 30.0629 46.988 30.088 47.3136 30.4156C47.6194 30.7232 47.6989 31.2433 47.3797 31.5701L45.2647 33.6857L47.5359 36.7081C47.841 37.1011 47.767 37.7132 47.3556 38.0017C46.9501 38.3039 46.3542 38.2031 46.0638 37.8203L43.9009 34.937L43.5824 35.2574V37.2823C43.5824 38.4885 41.7319 38.535 41.7319 37.3005Z" fill="#FFE812"/>
<path d="M32.6114 32.3318L33.5306 34.9673H31.6921L32.6114 32.3318Z" fill="black"/>
<path fill-rule="evenodd" clip-rule="evenodd" d="M20 33.8189C20 26.807 27.1618 21.125 35.994 21.125C44.8261 21.125 52 26.8131 52 33.8249C52 40.8368 44.8382 46.5188 36.006 46.5188C35.0387 46.5188 34.0834 46.4523 33.1641 46.3193C33.0932 46.369 32.997 46.4367 32.8793 46.5194C31.4507 47.5238 26.8711 50.7435 26.4048 50.8106C26.4048 50.8106 26.1945 50.8891 26.0203 50.7864C25.846 50.6836 25.8761 50.4116 25.8761 50.4116L27.4983 44.5785C22.9921 42.3238 20 38.3524 20 33.8189ZM27.1468 38.2435C27.1478 38.2435 27.1488 38.2435 27.1498 38.2435H27.1438C27.1448 38.2435 27.1458 38.2435 27.1468 38.2435ZM26.2246 37.3549C26.2246 37.8436 26.6375 38.2419 27.1468 38.2435C27.6502 38.2419 28.0691 37.8375 28.0691 37.3549V31.8361H29.5111C30.0038 31.8361 30.4123 31.4311 30.4123 30.9294C30.4123 30.4277 30.0098 30.0227 29.5111 30.0227H24.7826C24.2899 30.0227 23.8813 30.4277 23.8813 30.9294C23.8813 31.4311 24.2839 31.8361 24.7826 31.8361H26.2246V37.3549ZM34.4739 37.8204C34.564 38.0742 34.8584 38.2314 35.243 38.2314C35.4473 38.2314 35.6515 38.1951 35.8318 38.1105C36.0841 38.0017 36.3305 37.6692 36.0481 36.7928L33.843 30.9475C33.6928 30.5002 33.2122 30.0166 32.6114 30.0287C32.0105 30.0408 31.5359 30.5002 31.3797 30.9475L29.1746 36.7928C28.8922 37.6692 29.1386 37.9896 29.3909 38.1105C29.5772 38.1891 29.7755 38.2314 29.9797 38.2314C30.3643 38.2314 30.6587 38.0742 30.7488 37.8204L31.2054 36.6114H34.0173L34.4739 37.8204ZM36.6489 37.2642C36.6489 37.7297 37.0515 38.1105 37.5321 38.1105L40.4942 38.0924C40.9809 38.0924 41.3774 37.7116 41.3774 37.2461C41.3774 36.7807 40.9749 36.3999 40.4942 36.3999H38.5355V30.9475C38.5355 30.4398 38.1149 30.0166 37.5922 30.0166C37.0695 30.0166 36.6489 30.4337 36.6489 30.9475V37.2642ZM41.7319 30.9536V37.3005C41.7319 38.535 43.5824 38.4885 43.5824 37.2824V35.2574L43.9009 34.937L46.0638 37.8204C46.3542 38.2032 46.9501 38.3039 47.3556 38.0017C47.767 37.7132 47.841 37.1011 47.5359 36.7081L45.2647 33.6858L47.3797 31.5701C47.6989 31.2433 47.6194 30.7233 47.3136 30.4156C46.988 30.0881 46.4504 30.063 46.166 30.3491L43.5824 32.9483V30.9536C43.5824 30.4458 43.1619 30.0227 42.6572 30.0227C42.1525 30.0227 41.7319 30.4398 41.7319 30.9536Z" fill="black"/>
</g>
</svg>
