<svg width="24" height="24" viewBox="0 0 24 24" fill="none" xmlns="http://www.w3.org/2000/svg">
<path d="M14.6471 7.79961V5.69961C14.6471 5.14265 14.424 4.60851 14.0268 4.21469C13.6297 3.82086 13.091 3.59961 12.5294 3.59961H5.11765C4.55601 3.59961 4.01738 3.82086 3.62024 4.21469C3.22311 4.60851 3 5.14265 3 5.69961V18.2996C3 18.8566 3.22311 19.3907 3.62024 19.7845C4.01738 20.1784 4.55601 20.3996 5.11765 20.3996H12.5294C13.091 20.3996 13.6297 20.1784 14.0268 19.7845C14.424 19.3907 14.6471 18.8566 14.6471 18.2996V16.1996M8.29412 11.9996H21M21 11.9996L17.8235 8.84961M21 11.9996L17.8235 15.1496" stroke="#FAFAFA" stroke-width="2" stroke-linecap="round" stroke-linejoin="round"/>
</svg>
