<svg width="67" height="36" viewBox="0 0 67 36" fill="none" xmlns="http://www.w3.org/2000/svg">
<rect x="1.5" y="1.5" width="64" height="33" rx="10.5" fill="#FF3939"/>
<rect x="1.5" y="1.5" width="64" height="33" rx="10.5" stroke="#121212" stroke-width="3"/>
<path d="M30.7266 9.10156V14.1992H33.1875V15.9961H30.7266V22.0898H28.5586V9.10156H30.7266ZM31.4297 24.6289V26.3867H19.418V20.7812H21.5859V24.6289H31.4297ZM19.5547 10.3516V13.0469H23.6758V10.3516H25.8242V19.2188H17.4062V10.3516H19.5547ZM19.5547 17.5H23.6758V14.7266H19.5547V17.5ZM49.2812 9.08203V26.7383H47.2109V17.7344H45.2188V25.8398H43.2266V9.41406H45.2188V15.9961H47.2109V9.08203H49.2812ZM41.2344 11.1719V12.9297H36.8203V20.7812C38.7441 20.7617 40.3262 20.6641 42.1133 20.332L42.2695 22.1094C40.1406 22.5391 38.2852 22.5977 35.8242 22.6172H34.6328V11.1719H41.2344Z" fill="#121212"/>
</svg>
