<svg width="67" height="36" viewBox="0 0 67 36" fill="none" xmlns="http://www.w3.org/2000/svg">
<rect x="1.5" y="1.5" width="64" height="33" rx="10.5" fill="#3146E6"/>
<rect x="1.5" y="1.5" width="64" height="33" rx="10.5" stroke="#121212" stroke-width="3"/>
<path d="M23.1484 13.1836C23.1484 15.2539 24.5742 17.2852 27.3672 18.1055L26.2734 19.8438C24.291 19.2383 22.875 17.9688 22.0938 16.3672C21.3027 18.0957 19.8574 19.4629 17.8164 20.1367L16.7227 18.418C19.4961 17.5586 20.9805 15.4297 20.9805 13.1836V13.0273H17.2891V11.3086H20.9805V9.19922H23.168V11.3086H26.8398V13.0273H23.1484V13.1836ZM30.7266 9.08203V14.3945H33.1875V16.1914H30.7266V22.1484H28.5586V9.08203H30.7266ZM31.4297 24.6289V26.3867H19.418V20.9961H21.5859V24.6289H31.4297ZM40.5508 11.6211C40.5312 14.0234 41.9375 16.2109 44.7109 17.0898L43.5391 18.7891C41.6152 18.1152 40.2676 16.8359 39.5156 15.1562C38.7344 17.0801 37.2598 18.5938 35.1211 19.3359L33.9688 17.5781C36.8984 16.6211 38.3633 14.2578 38.3633 11.7188V10.0391H40.5508V11.6211ZM48.8711 9.08203V19.4727H46.7031V14.2773H43.1875V12.5H46.7031V9.08203H48.8711ZM42.8945 19.9414C46.6445 19.9414 48.9297 21.1914 48.9297 23.3398C48.9297 25.4883 46.6445 26.7188 42.8945 26.7188C39.1641 26.7188 36.8789 25.4883 36.8984 23.3398C36.8789 21.1914 39.1641 19.9414 42.8945 19.9414ZM42.8945 21.6211C40.4336 21.6211 39.0469 22.2266 39.0469 23.3398C39.0469 24.4141 40.4336 25.0195 42.8945 25.0195C45.3555 25.0195 46.7617 24.4141 46.7617 23.3398C46.7617 22.2266 45.3555 21.6211 42.8945 21.6211Z" fill="#121212"/>
</svg>
