<svg width="72" height="72" viewBox="0 0 72 72" fill="none" xmlns="http://www.w3.org/2000/svg">
<g opacity="0.8">
<rect width="72" height="72" rx="36" fill="#F1F1F1"/>
<path d="M27.4272 39.5263L26.4178 43.2949L22.7281 43.373C21.6254 41.3278 21 38.9878 21 36.5012C21 34.0966 21.5848 31.8291 22.6213 29.8325H22.6221L25.907 30.4347L27.3459 33.6999C27.0447 34.5779 26.8806 35.5204 26.8806 36.5012C26.8807 37.5656 27.0735 38.5855 27.4272 39.5263Z" fill="#FBBB00"/>
<path d="M49.7466 33.792C49.9131 34.6692 50 35.575 50 36.5009C50 37.539 49.8908 38.5517 49.6829 39.5285C48.977 42.8524 47.1326 45.7549 44.5775 47.8089L44.5767 47.8081L40.4393 47.597L39.8537 43.9416C41.5491 42.9473 42.8741 41.3912 43.5721 39.5285H35.8182V33.792H43.6852H49.7466Z" fill="#518EF8"/>
<path d="M44.5791 47.8074L44.5799 47.8082C42.0949 49.8056 38.9382 51.0007 35.5019 51.0007C29.9798 51.0007 25.1787 47.9142 22.7295 43.372L27.4286 39.5254C28.6532 42.7936 31.8059 45.12 35.5019 45.12C37.0906 45.12 38.5789 44.6906 39.856 43.9409L44.5791 47.8074Z" fill="#28B446"/>
<path d="M44.7551 25.3383L40.0575 29.1841C38.7358 28.3579 37.1733 27.8806 35.4994 27.8806C31.7197 27.8806 28.5081 30.3138 27.3449 33.6992L22.621 29.8319H22.6202C25.0336 25.179 29.8952 22 35.4994 22C39.0178 22 42.2438 23.2533 44.7551 25.3383Z" fill="#F14336"/>
</g>
</svg>
